<svg width="24" height="24" viewBox="0 0 24 24" fill="none" xmlns="http://www.w3.org/2000/svg">
<path d="M9.23575 8.85517V20.9942H13.0047V14.9912C13.0047 13.4072 13.3027 11.8732 15.2667 11.8732C17.2037 11.8732 17.2277 13.6842 17.2277 15.0912V20.9952H20.9987V14.3382C20.9987 11.0682 20.2947 8.55518 16.4727 8.55518C14.6377 8.55518 13.4077 9.56218 12.9047 10.5152H12.8537V8.85517H9.23575V8.85517ZM3.09375 8.85517H6.86875V20.9942H3.09375V8.85517Z" fill="#8F9BB3"/>
<path d="M4.98487 7.1968C6.19327 7.1968 7.17288 6.2172 7.17288 5.0088C7.17288 3.8004 6.19327 2.8208 4.98487 2.8208C3.77648 2.8208 2.79688 3.8004 2.79688 5.0088C2.79688 6.2172 3.77648 7.1968 4.98487 7.1968Z" fill="#8F9BB3"/>
</svg>
