<svg width="48" height="48" viewBox="0 0 48 48" fill="none" xmlns="http://www.w3.org/2000/svg">
<path d="M1.33333 16C0.596954 16 0 15.5523 0 15C0 14.4477 0.596954 14 1.33333 14H46.6667C47.403 14 48 14.4477 48 15C48 15.5523 47.403 16 46.6667 16H1.33333ZM1.33333 24C0.596954 24 0 23.5523 0 23C0 22.4477 0.596954 22 1.33333 22H46.6667C47.403 22 48 22.4477 48 23C48 23.5523 47.403 24 46.6667 24H1.33333ZM1.33333 32C0.596954 32 0 31.5523 0 31C0 30.4477 0.596954 30 1.33333 30H46.6667C47.403 30 48 30.4477 48 31C48 31.5523 47.403 32 46.6667 32H1.33333Z" fill="white"/>
</svg>
